<svg xmlns="http://www.w3.org/2000/svg" viewBox="0 0 100 100" aria-hidden="true" focusable="false">
  <path d="M 17.6 11.3 L 24.6 11.3 L 35.6 11.4 L 44.0 11.4 L 44.1 25.6 L 44.0 35.9 L 54.6 43.2 L 64.5 50.4 L 72.3 56.3 L 78.0 60.7 L 87.9 68.6 L 87.9 69.6 L 89.3 71.0 L 90.4 73.1 L 92.0 74.3 L 91.0 75.3 L 89.7 75.9 L 88.7 77.3 L 89.0 79.2 L 88.8 80.4 L 87.2 81.6 L 87.7 84.7 L 88.8 84.7 L 89.3 86.2 L 88.8 86.9 L 87.2 87.3 L 76.4 88.0 L 67.6 88.7 L 66.6 87.7 L 66.5 86.0 L 65.9 83.9 L 64.7 82.5 L 62.2 80.5 L 58.9 78.7 L 58.3 79.2 L 57.0 78.9 L 57.2 78.1 L 55.8 76.4 L 53.9 76.8 L 50.4 75.6 L 50.0 74.6 L 47.7 73.4 L 45.1 73.4 L 42.9 72.9 L 40.2 73.1 L 38.8 72.0 L 39.1 69.7 L 38.6 69.4 L 38.9 67.8 L 36.7 66.6 L 36.7 64.9 L 35.9 64.8 L 34.5 63.4 L 33.6 63.1 L 33.2 62.2 L 30.0 58.8 L 28.6 57.8 L 28.2 55.2 L 28.9 55.4 L 29.4 53.9 L 28.3 52.4 L 26.9 52.6 L 25.0 51.3 L 24.3 50.3 L 24.4 49.3 L 23.5 48.0 L 23.5 45.8 L 25.0 45.8 L 24.4 42.8 L 23.7 43.1 L 23.6 44.6 L 22.0 44.9 L 20.0 43.8 L 19.7 41.9 L 18.5 40.4 L 16.8 39.4 L 15.9 38.4 L 13.5 36.3 L 13.9 35.6 L 12.8 32.9 L 13.3 31.4 L 12.6 29.1 L 10.5 26.9 L 8.4 25.6 L 8.0 24.1 L 10.1 20.5 L 10.5 19.3 L 10.1 18.4 L 10.8 15.9 L 10.1 13.7 L 9.3 13.1 L 9.6 11.4 L 17.6 11.3 Z" fill="none" stroke="#22c55e" stroke-opacity="0.85" stroke-width="2.2" stroke-linecap="round" stroke-linejoin="round"/>
</svg>
