<svg xmlns="http://www.w3.org/2000/svg" viewBox="0 0 100 100" aria-hidden="true" focusable="false">
  <path d="M 31.6 17.6 L 37.0 17.5 L 38.6 20.7 L 53.7 21.4 L 67.9 22.3 L 68.4 24.6 L 69.7 24.6 L 70.2 22.3 L 69.8 20.3 L 70.8 19.4 L 73.4 20.3 L 76.4 20.8 L 77.1 25.6 L 78.4 30.9 L 81.7 38.0 L 86.6 45.6 L 85.8 46.1 L 86.1 49.6 L 88.1 53.6 L 91.3 61.5 L 92.0 64.0 L 91.9 66.5 L 90.7 75.7 L 89.7 75.8 L 88.6 78.7 L 89.0 79.6 L 86.9 81.7 L 86.0 81.2 L 84.0 82.0 L 80.4 82.5 L 79.4 81.3 L 79.9 79.7 L 77.4 74.8 L 75.5 73.8 L 73.8 74.5 L 72.5 71.8 L 72.1 69.5 L 69.8 67.1 L 69.2 65.4 L 69.6 63.1 L 68.3 62.6 L 68.6 64.0 L 67.5 64.4 L 64.0 58.4 L 62.6 56.9 L 65.9 52.5 L 63.7 52.7 L 62.3 54.1 L 60.8 51.9 L 62.8 45.9 L 63.1 40.9 L 61.8 39.7 L 61.4 38.0 L 59.3 37.7 L 56.8 35.0 L 54.8 33.9 L 54.7 32.3 L 53.3 31.7 L 52.1 29.8 L 47.9 27.4 L 44.2 28.0 L 44.4 29.7 L 43.2 29.4 L 38.6 31.4 L 33.7 31.9 L 33.8 30.7 L 32.6 29.2 L 26.9 26.0 L 22.8 24.6 L 19.1 24.2 L 16.0 24.5 L 9.3 25.5 L 10.9 23.9 L 10.1 22.9 L 10.5 21.1 L 8.0 19.0 L 8.4 17.6 L 31.6 17.6 Z" fill="none" stroke="#22c55e" stroke-opacity="0.85" stroke-width="2.2" stroke-linecap="round" stroke-linejoin="round"/>
</svg>
