<svg xmlns="http://www.w3.org/2000/svg" viewBox="0 0 100 100" aria-hidden="true" focusable="false">
  <path d="M 81.1 83.6 L 66.9 84.0 L 66.9 83.3 L 54.5 83.3 L 45.7 83.3 L 47.8 81.9 L 49.3 79.6 L 50.6 78.1 L 51.6 76.1 L 52.2 73.3 L 51.9 70.2 L 48.8 64.1 L 49.8 61.8 L 49.1 59.0 L 51.5 56.2 L 52.0 53.8 L 51.7 52.6 L 53.4 52.0 L 53.7 50.3 L 56.4 49.9 L 58.4 48.0 L 58.3 51.8 L 59.3 51.9 L 60.7 50.0 L 60.8 46.8 L 61.6 46.0 L 64.5 45.5 L 63.6 43.2 L 65.5 41.3 L 67.9 41.2 L 70.5 42.4 L 73.1 42.6 L 74.3 44.1 L 76.3 44.2 L 79.6 45.6 L 80.7 45.5 L 82.5 47.8 L 81.1 49.0 L 82.5 50.5 L 83.0 52.3 L 82.3 56.2 L 80.2 57.2 L 79.7 59.2 L 77.2 59.9 L 75.8 62.3 L 76.3 63.3 L 78.8 64.1 L 80.8 62.8 L 83.1 60.1 L 86.7 59.1 L 88.5 59.9 L 89.6 61.4 L 90.7 65.7 L 90.9 67.9 L 92.0 70.6 L 90.9 74.3 L 89.2 74.9 L 89.1 73.5 L 88.0 73.9 L 86.7 77.1 L 84.5 78.3 L 83.9 80.7 L 81.2 82.7 L 81.1 83.6 Z M 59.5 41.6 L 59.7 42.9 L 58.3 43.1 L 58.9 41.3 L 59.5 41.6 Z M 37.7 48.3 L 36.1 47.2 L 37.0 45.7 L 34.6 45.5 L 35.5 44.0 L 35.7 42.2 L 33.5 40.9 L 32.3 39.6 L 27.8 38.6 L 26.4 38.9 L 21.9 37.4 L 11.1 35.3 L 10.0 33.5 L 8.0 32.8 L 12.1 31.7 L 13.9 30.5 L 18.5 30.0 L 21.5 28.4 L 22.9 28.4 L 24.0 27.3 L 27.3 25.7 L 29.0 24.4 L 31.5 23.5 L 33.8 24.3 L 29.7 27.5 L 28.7 28.6 L 28.8 30.5 L 30.8 29.0 L 34.4 29.3 L 37.2 30.3 L 39.7 33.2 L 41.1 33.7 L 43.8 33.2 L 44.4 33.9 L 47.0 34.2 L 52.7 31.8 L 55.6 31.6 L 59.5 31.7 L 62.2 30.9 L 64.2 30.8 L 64.6 33.8 L 66.6 34.2 L 68.7 33.7 L 69.6 34.4 L 71.0 33.5 L 74.0 33.2 L 74.1 36.9 L 75.4 38.5 L 77.5 38.9 L 77.7 37.8 L 79.8 37.8 L 80.8 38.9 L 79.9 39.7 L 74.2 39.0 L 71.4 39.5 L 68.4 38.2 L 67.6 39.4 L 68.0 40.4 L 66.6 40.1 L 64.7 38.7 L 61.3 37.8 L 59.6 37.8 L 57.9 39.2 L 55.1 39.5 L 52.2 39.2 L 50.9 39.8 L 50.7 40.9 L 47.4 41.9 L 47.6 40.5 L 46.1 40.3 L 45.5 41.7 L 43.1 41.7 L 42.0 42.4 L 40.4 44.9 L 37.4 48.0 L 37.7 48.3 Z M 24.9 18.1 L 22.3 19.4 L 20.9 19.6 L 21.0 18.5 L 27.6 16.0 L 26.3 17.7 L 24.9 18.1 Z" fill="none" stroke="#22c55e" stroke-opacity="0.85" stroke-width="2.2" stroke-linecap="round" stroke-linejoin="round"/>
</svg>
