<svg xmlns="http://www.w3.org/2000/svg" viewBox="0 0 100 100" aria-hidden="true" focusable="false">
  <path d="M 65.5 47.1 L 64.7 46.6 L 62.4 47.5 L 62.4 54.0 L 61.8 54.7 L 58.6 55.6 L 56.1 58.0 L 55.9 59.5 L 57.2 59.7 L 58.6 61.1 L 57.3 62.8 L 57.6 64.6 L 56.8 68.7 L 59.7 70.7 L 62.0 70.8 L 63.1 72.1 L 66.5 73.3 L 67.0 74.7 L 70.2 76.6 L 71.9 77.0 L 74.1 79.4 L 73.7 81.2 L 74.4 82.5 L 72.7 82.5 L 16.6 82.5 L 16.6 62.6 L 14.0 61.4 L 12.1 59.2 L 15.1 56.9 L 15.4 55.6 L 14.9 51.2 L 13.6 50.1 L 12.7 47.6 L 12.9 44.7 L 12.5 44.2 L 12.1 37.1 L 9.9 33.4 L 9.1 31.3 L 8.7 26.8 L 9.5 25.3 L 8.0 21.8 L 30.9 21.8 L 30.9 17.5 L 33.1 17.7 L 34.5 18.5 L 36.0 24.3 L 37.1 24.9 L 40.8 25.1 L 41.2 25.6 L 45.4 25.9 L 45.9 27.1 L 49.5 26.8 L 49.5 26.3 L 52.4 25.7 L 54.8 25.9 L 57.7 26.9 L 58.5 28.0 L 60.1 27.9 L 61.6 30.4 L 62.3 29.3 L 65.1 28.8 L 65.6 29.9 L 68.9 30.6 L 68.9 31.6 L 70.5 32.4 L 73.8 31.9 L 75.8 30.8 L 78.5 30.2 L 79.5 31.8 L 81.4 31.4 L 83.6 31.8 L 86.2 31.6 L 89.2 33.0 L 92.0 32.7 L 91.8 33.3 L 88.1 34.7 L 82.9 35.8 L 79.6 36.9 L 74.8 39.8 L 72.8 41.5 L 69.6 43.5 L 64.7 46.2 L 65.5 47.1 Z" fill="none" stroke="#22c55e" stroke-opacity="0.85" stroke-width="2.2" stroke-linecap="round" stroke-linejoin="round"/>
</svg>
