<svg xmlns="http://www.w3.org/2000/svg" viewBox="0 0 100 100" aria-hidden="true" focusable="false">
  <path d="M 57.8 20.8 L 59.1 20.8 L 61.7 23.3 L 63.1 23.7 L 62.0 25.5 L 62.1 28.1 L 63.7 32.0 L 67.6 35.3 L 71.8 38.0 L 72.6 42.1 L 73.6 42.9 L 75.1 41.7 L 77.8 42.3 L 79.7 43.2 L 78.4 44.7 L 78.8 45.9 L 76.6 49.1 L 76.5 51.1 L 80.3 53.7 L 81.7 55.4 L 83.1 55.1 L 87.1 57.8 L 87.1 59.7 L 88.2 62.2 L 87.1 63.0 L 90.0 66.6 L 92.0 66.8 L 91.0 71.9 L 89.1 71.3 L 88.4 72.9 L 87.6 72.9 L 86.9 72.9 L 86.9 76.0 L 84.4 79.2 L 76.3 79.2 L 78.3 76.9 L 80.2 75.4 L 79.1 72.9 L 24.4 72.9 L 22.6 72.9 L 22.6 66.5 L 22.6 39.2 L 19.9 38.6 L 17.9 35.6 L 16.3 34.4 L 19.2 30.7 L 15.1 29.7 L 13.8 28.5 L 10.7 25.2 L 8.0 21.1 L 22.4 21.3 L 39.8 21.2 L 57.8 20.8 Z" fill="none" stroke="#22c55e" stroke-opacity="0.85" stroke-width="2.2" stroke-linecap="round" stroke-linejoin="round"/>
</svg>
