<svg xmlns="http://www.w3.org/2000/svg" viewBox="0 0 100 100" aria-hidden="true" focusable="false">
  <path d="M 78.4 25.5 L 78.5 27.8 L 77.9 29.9 L 78.9 31.8 L 78.6 33.9 L 77.3 36.2 L 78.3 39.2 L 77.7 40.1 L 79.5 41.9 L 79.1 49.4 L 79.2 50.4 L 76.6 57.6 L 76.8 58.0 L 76.1 66.3 L 76.9 67.2 L 74.2 68.4 L 74.9 69.7 L 79.6 70.6 L 80.6 69.9 L 84.6 69.9 L 86.7 69.5 L 90.0 67.8 L 90.3 69.1 L 92.0 69.6 L 88.0 71.2 L 79.5 73.6 L 76.0 74.1 L 73.6 74.0 L 71.9 74.5 L 70.9 72.7 L 72.2 69.5 L 68.6 68.0 L 63.5 65.6 L 63.1 64.8 L 61.4 64.7 L 59.4 62.9 L 59.6 61.3 L 58.3 60.0 L 57.5 60.1 L 56.3 58.6 L 8.0 58.6 L 8.0 55.8 L 14.7 52.5 L 15.8 51.0 L 18.0 50.0 L 17.1 48.1 L 16.2 47.7 L 15.6 44.7 L 22.0 43.5 L 27.7 43.5 L 30.0 43.8 L 32.4 45.0 L 34.0 44.6 L 38.7 44.6 L 41.6 43.8 L 44.7 41.9 L 46.7 41.8 L 46.7 38.8 L 47.7 37.1 L 45.3 35.9 L 45.8 34.5 L 50.2 32.6 L 51.8 31.0 L 57.1 27.3 L 62.1 25.5 L 69.5 25.8 L 78.4 25.5 Z" fill="none" stroke="#22c55e" stroke-opacity="0.85" stroke-width="2.2" stroke-linecap="round" stroke-linejoin="round"/>
</svg>
