<svg xmlns="http://www.w3.org/2000/svg" viewBox="0 0 100 100" aria-hidden="true" focusable="false">
  <path d="M 92.0 15.3 L 92.0 41.5 L 89.1 42.6 L 90.5 44.7 L 90.4 47.7 L 87.7 52.4 L 85.9 59.6 L 78.3 65.9 L 75.8 66.7 L 73.7 65.5 L 71.5 68.2 L 69.2 68.1 L 66.7 71.9 L 67.3 74.1 L 65.2 75.9 L 62.4 73.0 L 58.7 77.7 L 59.7 80.7 L 57.3 81.7 L 56.6 84.3 L 51.4 84.7 L 48.8 82.0 L 46.5 81.5 L 45.7 78.2 L 42.9 78.8 L 40.7 80.8 L 33.4 79.3 L 30.3 80.7 L 25.9 78.0 L 19.8 77.2 L 19.4 75.5 L 15.5 71.5 L 8.0 71.5 L 8.3 44.2 L 8.2 20.8 L 34.6 20.1 L 42.2 22.8 L 44.8 24.4 L 46.7 22.9 L 51.0 26.0 L 53.7 26.9 L 62.8 24.4 L 68.1 24.9 L 73.9 21.3 L 82.4 17.7 L 92.0 15.3 Z" fill="none" stroke="#22c55e" stroke-opacity="0.85" stroke-width="2.2" stroke-linecap="round" stroke-linejoin="round"/>
</svg>
