<svg xmlns="http://www.w3.org/2000/svg" viewBox="0 0 100 100" aria-hidden="true" focusable="false">
  <path d="M 36.6 33.5 L 90.2 33.5 L 90.2 38.4 L 92.0 49.2 L 91.5 66.5 L 87.7 65.4 L 86.7 64.3 L 84.2 63.3 L 83.6 64.2 L 81.1 64.1 L 80.5 63.6 L 78.2 64.5 L 77.2 64.0 L 75.1 64.5 L 73.2 66.0 L 72.5 65.1 L 70.4 64.4 L 68.3 64.4 L 67.6 63.3 L 65.1 65.5 L 64.3 64.3 L 63.2 64.7 L 62.3 63.8 L 60.0 63.1 L 58.3 64.4 L 57.5 63.0 L 56.1 62.9 L 55.3 61.8 L 53.5 61.4 L 52.2 62.3 L 51.4 61.5 L 49.5 61.6 L 47.3 60.7 L 45.4 60.8 L 44.7 59.0 L 41.5 58.9 L 40.4 59.2 L 38.2 57.3 L 37.4 57.4 L 37.4 38.4 L 19.6 38.4 L 8.0 38.4 L 8.0 33.5 L 17.4 33.6 L 36.6 33.5 Z" fill="none" stroke="#22c55e" stroke-opacity="0.85" stroke-width="2.2" stroke-linecap="round" stroke-linejoin="round"/>
</svg>
