<svg xmlns="http://www.w3.org/2000/svg" viewBox="0 0 100 100" aria-hidden="true" focusable="false">
  <path d="M 18.9 31.9 L 18.9 35.5 L 82.4 35.5 L 84.0 37.5 L 85.1 37.4 L 86.9 39.1 L 86.5 41.2 L 89.2 43.6 L 91.4 43.7 L 92.0 44.7 L 90.1 45.8 L 89.3 47.4 L 85.7 50.4 L 86.9 51.9 L 84.7 54.4 L 84.8 56.0 L 86.6 56.5 L 86.8 58.3 L 90.9 61.3 L 90.2 62.5 L 85.8 64.9 L 85.5 66.0 L 81.6 67.2 L 78.7 66.8 L 76.3 68.4 L 23.0 68.4 L 8.0 68.4 L 8.0 55.2 L 8.0 35.8 L 10.7 35.0 L 18.9 31.6 L 18.9 31.9 Z" fill="none" stroke="#22c55e" stroke-opacity="0.85" stroke-width="2.2" stroke-linecap="round" stroke-linejoin="round"/>
</svg>
