<svg xmlns="http://www.w3.org/2000/svg" viewBox="0 0 100 100" aria-hidden="true" focusable="false">
  <path d="M 38.9 16.0 L 50.5 16.0 L 50.5 28.4 L 51.0 28.4 L 52.5 29.6 L 53.2 29.4 L 55.3 29.4 L 55.7 30.7 L 57.0 30.6 L 58.4 31.2 L 59.7 31.1 L 60.2 31.6 L 61.0 31.0 L 62.3 31.3 L 62.8 32.0 L 63.7 32.1 L 64.2 33.0 L 65.3 32.1 L 66.8 32.6 L 67.4 33.2 L 68.1 32.9 L 68.6 33.7 L 70.3 32.3 L 70.7 33.0 L 72.1 33.0 L 73.4 33.5 L 73.9 34.0 L 75.2 33.1 L 76.6 32.7 L 77.2 33.1 L 78.7 32.5 L 79.1 32.8 L 80.7 32.8 L 81.1 32.3 L 82.8 32.9 L 83.4 33.7 L 85.9 34.4 L 86.5 35.0 L 87.8 34.6 L 88.7 34.9 L 88.7 38.3 L 88.7 44.9 L 90.1 46.3 L 90.1 47.7 L 91.9 50.3 L 92.0 51.6 L 91.3 53.3 L 90.7 54.0 L 90.9 54.8 L 90.5 55.5 L 90.9 56.7 L 89.4 59.0 L 90.0 59.6 L 88.9 59.7 L 85.6 60.6 L 84.4 60.1 L 84.2 59.0 L 83.4 59.8 L 82.8 59.6 L 82.5 60.5 L 83.1 60.9 L 83.2 62.1 L 82.0 63.3 L 80.1 64.9 L 76.3 66.6 L 75.9 66.3 L 74.7 66.7 L 74.7 66.3 L 73.1 66.6 L 72.4 65.8 L 71.9 66.0 L 73.6 67.6 L 72.4 68.2 L 71.2 67.9 L 71.0 69.0 L 69.6 70.2 L 68.1 72.4 L 67.2 74.7 L 66.5 74.6 L 66.3 75.4 L 67.0 75.2 L 66.7 76.9 L 66.2 76.9 L 66.2 77.9 L 66.7 78.4 L 66.9 80.3 L 67.6 81.0 L 67.8 82.2 L 68.4 83.3 L 66.4 84.0 L 65.6 83.1 L 64.1 82.8 L 62.1 82.9 L 60.4 81.8 L 59.1 81.7 L 58.1 80.9 L 56.8 80.6 L 55.8 79.8 L 55.2 77.9 L 54.1 76.7 L 54.2 75.7 L 53.7 74.7 L 53.9 73.8 L 53.1 72.8 L 52.4 72.7 L 51.3 71.7 L 51.0 70.6 L 50.0 69.5 L 48.6 68.7 L 48.0 66.7 L 47.4 66.2 L 46.5 64.7 L 46.2 63.4 L 45.4 62.5 L 44.1 61.7 L 43.7 61.1 L 42.5 60.6 L 41.5 59.2 L 38.7 58.9 L 37.0 59.0 L 35.6 58.5 L 35.3 59.2 L 33.7 59.4 L 32.6 60.7 L 31.8 62.8 L 31.5 62.9 L 30.6 64.1 L 29.5 64.2 L 28.0 63.2 L 24.0 61.6 L 23.2 60.8 L 21.7 60.0 L 20.6 58.1 L 20.5 56.5 L 19.4 55.2 L 19.2 54.0 L 18.5 53.3 L 16.0 52.2 L 14.7 50.7 L 13.6 50.2 L 12.4 48.9 L 10.8 48.2 L 9.7 46.6 L 8.7 46.2 L 8.0 45.5 L 8.2 44.8 L 30.9 44.8 L 30.9 38.4 L 31.0 31.9 L 31.1 16.0 L 31.3 16.0 L 38.9 16.0 Z" fill="none" stroke="#22c55e" stroke-opacity="0.85" stroke-width="2.2" stroke-linecap="round" stroke-linejoin="round"/>
</svg>
